<svg width="123" height="107" viewBox="0 0 123 107" fill="none" xmlns="http://www.w3.org/2000/svg">
<path fill-rule="evenodd" clip-rule="evenodd" d="M59.3898 15.7744C60.1816 16.5524 61.4575 16.5316 62.2204 15.7253C69.5239 8.0062 75.1764 1.53187 86.7912 0.20473C109.961 -2.45527 131.271 21.2647 119.571 44.6147C116.241 51.2647 109.461 59.1747 101.961 66.9347C93.7312 75.4547 84.6212 83.8047 78.2412 90.1347L62.2286 106.019C61.4573 106.784 60.2161 106.793 59.4332 106.04L46.4612 93.5547C29.1612 76.8947 0.951243 55.9247 0.0212432 29.9447C-0.628757 11.7447 13.7312 0.0847305 30.2512 0.294731C44.2606 0.484559 50.5675 7.10658 59.3898 15.7744Z" fill="black"/>
</svg>
